<?xml version="1.0" encoding="UTF-8" standalone="no"?>
<svg
   xmlns:dc="http://purl.org/dc/elements/1.1/"
   xmlns:cc="http://creativecommons.org/ns#"
   xmlns:rdf="http://www.w3.org/1999/02/22-rdf-syntax-ns#"
   xmlns:svg="http://www.w3.org/2000/svg"
   xmlns="http://www.w3.org/2000/svg"
   xmlns:xlink="http://www.w3.org/1999/xlink"
   xmlns:sodipodi="http://sodipodi.sourceforge.net/DTD/sodipodi-0.dtd"
   xmlns:inkscape="http://www.inkscape.org/namespaces/inkscape"
   version="1.1"
   id="svg62"
   width="76"
   height="76"
   viewBox="0 0 76 76"
   sodipodi:docname="seaCreatures.svg"
   inkscape:export-filename="/Users/brittanypinder/Desktop/path226.png"
   inkscape:export-xdpi="716.36157"
   inkscape:export-ydpi="716.36157"
   inkscape:version="1.0.1 (c497b03c, 2020-09-10)">
  <metadata
     id="metadata68">
    <rdf:RDF>
      <cc:Work
         rdf:about="">
        <dc:format>image/svg+xml</dc:format>
        <dc:type
           rdf:resource="http://purl.org/dc/dcmitype/StillImage" />
        <dc:title></dc:title>
      </cc:Work>
    </rdf:RDF>
  </metadata>
  <defs
     id="defs66" />
  <sodipodi:namedview
     pagecolor="#ffffff"
     bordercolor="#666666"
     borderopacity="1"
     objecttolerance="10"
     gridtolerance="10"
     guidetolerance="10"
     inkscape:pageopacity="0"
     inkscape:pageshadow="2"
     inkscape:window-width="988"
     inkscape:window-height="833"
     id="namedview64"
     showgrid="false"
     inkscape:zoom="3.6388287"
     inkscape:cx="-11.63873"
     inkscape:cy="83.720858"
     inkscape:window-x="2002"
     inkscape:window-y="23"
     inkscape:window-maximized="0"
     inkscape:current-layer="g70" />
  <g
     inkscape:groupmode="layer"
     inkscape:label="Image"
     id="g70">
    <image
       sodipodi:absref="/Users/brittanypinder/Desktop/seaCreatures.png"
       xlink:href="seaCreatures.png"
       y="93.16185"
       x="-111.84918"
       id="image72"
       preserveAspectRatio="none"
       height="76"
       width="76" />
    <path
       style="fill:#edca6b;stroke-width:1.33333"
       d="m -40.818012,68.5842 c -2.539601,-3.018144 -3.408889,-5.323862 -3.016116,-8 0.356063,-2.426014 -0.04388,-3.759756 -1.127411,-3.759756 -2.125552,0 -3.620286,4.550925 -2.575709,7.8421 1.328952,4.187154 -2.877313,4.479265 -6.605372,0.458721 -4.566874,-4.925168 -4.567337,-12.090028 -10e-4,-16.060375 1.83891,-1.598912 4.23891,-2.907113 5.333333,-2.907113 2.778561,0 2.536409,-0.80374 -1.931671,-6.411517 -5.933986,-7.447603 -6.213408,-20.179987 -0.58954,-26.863574 13.54298,-16.0949172 41.7093236,-10.5869207 45.9049986,8.976834 1.646017,7.675114 0.13776,12.713074 -5.9770706,19.964924 l -3.653908,4.333333 h 3.451858 c 1.8985216,0 3.4518576,0.6 3.4518576,1.333333 0,0.733334 0.852327,1.333334 1.89406,1.333334 4.008878,0 3.990768,12.972314 -0.02371,16.986796 -2.996855,2.996848 -5.8703536,1.991692 -5.8703536,-2.053463 0,-3.598596 -2.052146,-6.933333 -4.266666,-6.933333 -0.586667,0 -1.066667,2.295412 -1.066667,5.100914 0,5.506414 -4.188425,10.899086 -8.465192,10.899086 -1.971631,0 -2.172963,-0.907315 -1.435285,-6.468202 0.710968,-5.359536 0.469678,-6.617229 -1.407732,-7.33766 -3.645455,-1.398892 -4.691791,0.210799 -4.691791,7.217884 0,7.930383 -2.074393,8.594714 -7.33088,2.347734 z m 5.327093,-22.414491 c 1.0757,-3.389232 -0.142706,-5.345265 -3.329546,-5.345265 -1.380108,0 -2.883427,0.605369 -3.340708,1.345265 -1.434375,2.320867 0.741246,6.654735 3.340708,6.654735 1.367832,0 2.866126,-1.194631 3.329546,-2.654735 z m 17.152622,0.654735 c 1.254357,-3.268802 -0.547394,-6 -3.958154,-6 -2.453729,0 -3.190681,0.718573 -3.190681,3.11111 0,1.711112 0.4,3.511112 0.888889,4 1.611907,1.611908 5.478376,0.925627 6.259946,-1.11111 z"
       id="path165" />
    <path
       style="fill:#e6e6e6;fill-opacity:1;stroke-width:1.33333"
       d="m 105.90568,147.86274 c -4.18257,-0.93655 -7.338761,-5.85497 -7.386806,-11.51119 -0.05536,-6.51731 -1.62026,-5.2423 -2.624677,2.13846 -0.929627,6.83117 -2.618894,7.52091 -7.199984,2.93982 -2.901653,-2.90165 -3.553031,-4.77606 -3.553031,-10.22422 0,-7.35749 2.169379,-10.15016 8,-10.2985 2.885577,-0.0734 3.051223,-0.303 1.233148,-1.70908 -9.537145,-7.37593 -10.950098,-24.50176 -2.750875,-33.342238 5.309824,-5.7251 10.330345,-7.615353 20.226415,-7.615353 17.4899,0 26.62465,7.794738 26.62465,22.718981 0,5.45435 -0.83544,8.13217 -4,12.82116 -4.72479,7.00081 -4.74991,7.12653 -1.42413,7.12653 2.83789,0 8.09079,6.46657 8.09079,9.96014 0,4.98556 -6.91601,14.03986 -10.72416,14.03986 -1.84968,0 -2.14763,-0.96704 -1.64327,-5.33334 0.76763,-6.64553 -1.66162,-7.1124 -2.73064,-0.52478 -0.8632,5.3193 -3.9931,8.4177 -8.56859,8.48238 -3.24653,0.0459 -3.52791,-0.71359 -3.07172,-8.29093 0.22893,-3.80257 -0.20541,-5 -1.81363,-5 -1.64533,0 -2.11465,1.46214 -2.11465,6.58798 0,7.05839 -0.56645,7.93052 -4.56884,7.03432 z m 0.56884,-28.95563 c 0,-3.38798 -3.03672,-4.63732 -4.70613,-1.93616 -1.28429,2.07803 0.32933,5.26949 2.66428,5.26949 1.28908,0 2.04185,-1.2289 2.04185,-3.33333 z m 17.31291,0.85734 c -0.0112,-0.47154 -0.58953,-1.75734 -1.28511,-2.85734 -1.1039,-1.74571 -1.56751,-1.69719 -3.64625,0.38155 -1.99276,1.99275 -2.07479,2.57121 -0.50247,3.5433 1.91539,1.1842 5.47082,0.48571 5.43383,-1.06751 z"
       id="path113" />
    <path
       style="fill:#000000;stroke-width:1.33333"
       id="path109"
       d="" />
    <path
       style="fill:#000000;stroke-width:1.33333"
       id="path107"
       d="" />
    <path
       style="fill:#e6e6e6;fill-opacity:1;stroke-width:1.33333"
       d="m 108.09401,67.924733 c -4.18257,-0.93654 -7.33876,-5.85497 -7.3868,-11.51118 -0.0554,-6.51731 -1.620265,-5.24231 -2.624683,2.13846 -0.929626,6.83117 -2.618893,7.52091 -7.199984,2.93982 -2.901653,-2.90165 -3.55303,-4.77606 -3.55303,-10.22422 0,-7.35749 2.169379,-10.15016 8,-10.29851 2.885577,-0.0734 3.051222,-0.30299 1.233148,-1.70907 C 87.025515,31.884103 85.612562,14.758277 93.811786,5.917796 99.12161,0.19269696 104.14213,-1.6975555 114.0382,-1.6975555 c 17.4899,0 26.62465,7.7947365 26.62465,22.7189685 0,5.45435 -0.83544,8.13218 -4,12.82117 -4.72479,7.00081 -4.74991,7.12652 -1.42413,7.12652 2.83789,0 8.09079,6.46657 8.09079,9.96015 0,4.98556 -6.91601,14.03985 -10.72416,14.03985 -1.84968,0 -2.14763,-0.96703 -1.64327,-5.33333 0.76763,-6.64554 -1.66162,-7.1124 -2.73064,-0.52478 -0.8632,5.3193 -3.9931,8.4177 -8.56859,8.48237 -3.24653,0.0459 -3.52791,-0.71358 -3.07172,-8.29092 0.22893,-3.80258 -0.20541,-5 -1.81363,-5 -1.64533,0 -2.11465,1.46213 -2.11465,6.58797 0,7.0584 -0.56645,7.93052 -4.56884,7.03432 z m 0.56884,-28.95563 c 0,-3.38797 -3.03672,-4.63731 -4.70613,-1.93615 -1.28429,2.07803 0.32933,5.26949 2.66428,5.26949 1.28908,0 2.04185,-1.2289 2.04185,-3.33334 z m 17.31291,0.85735 c -0.0112,-0.47154 -0.58953,-1.75735 -1.28511,-2.85735 -1.1039,-1.7457 -1.56751,-1.69719 -3.64625,0.38155 -1.99276,1.99276 -2.07479,2.57122 -0.50247,3.54331 1.91539,1.18419 5.47082,0.48571 5.43383,-1.06751 z"
       id="path82" />
    <path
       style="fill:#000000;stroke-width:0.274814"
       d=""
       id="path219" />
    <path
       style="fill:#000000;stroke-width:0.274814"
       d="M 28.346664,69.636995 C 26.832274,68.080332 25.500422,66.402066 24.911493,65.308341 23.97738,63.57356 23.94964,63.434114 23.949481,60.472438 23.9493,57.11225 23.723143,56.514302 22.452424,56.514302 c -1.731803,0 -2.694478,2.245976 -3.048658,7.11269 -0.343182,4.715592 -0.995727,5.568792 -3.035949,3.969483 -2.737738,-2.14608 -5.311891,-6.357603 -5.740876,-9.392536 -0.8608861,-6.09049 3.460474,-12.132558 8.677349,-12.132558 2.51498,0 2.601808,-0.51682 0.531377,-3.162872 C 15.005276,36.735171 14.453338,35.842067 13.213673,32.193289 12.142554,29.0406 11.953041,24.085977 12.778686,20.820994 15.238844,11.092387 23.193373,5.0319285 35.198851,3.7393407 c 5.4193,-0.5834772 10.199113,0.2916192 15.270317,2.7957157 2.536508,1.2524957 3.203404,1.7436513 5.513359,4.0604656 2.319076,2.325962 2.792775,2.974642 4.031833,5.521164 1.762641,3.622589 2.276441,5.632331 2.459017,9.618481 0.272549,5.950516 -1.175549,9.376896 -6.910631,16.351415 -2.570926,3.126542 -2.657259,3.970894 -0.406999,3.980592 1.482851,0.0064 3.721832,1.274586 5.895384,3.339247 2.573726,2.444793 3.559785,4.233558 3.50236,6.353482 -0.05142,1.898275 -1.275504,5.613333 -2.579176,7.827716 -1.150755,1.954649 -3.50485,4.381707 -4.489739,4.628899 -1.208815,0.303395 -1.522957,-0.29781 -1.82094,-3.484893 -0.319312,-3.415217 -0.625762,-4.682655 -1.495679,-6.185939 -0.748865,-1.294095 -1.730994,-2.031384 -2.705959,-2.031384 -0.925773,0 -1.230228,1.041346 -1.518849,5.194996 -0.203601,2.930116 -0.339287,3.560503 -1.098205,5.102081 -0.956415,1.942755 -2.983941,3.975183 -4.891291,4.903119 -0.967157,0.470528 -1.273393,0.509521 -1.869272,0.238022 -1.197061,-0.545417 -1.554689,-1.928211 -1.789441,-6.918993 -0.117307,-2.493934 -0.3435,-4.866989 -0.50265,-5.273455 -0.368358,-0.940784 -1.088244,-1.322074 -2.496114,-1.322074 -2.097715,0 -2.575897,1.057736 -3.030442,6.703325 -0.444666,5.522884 -0.995242,7.037102 -2.558937,7.037698 -0.757247,2.75e-4 -1.248162,-0.3711 -3.360133,-2.542026 z M 47.858437,48.036731 c 1.114241,-0.630409 2.061103,-2.568033 2.061103,-4.217753 0,-1.814213 -0.962741,-2.87038 -2.951095,-3.237476 -1.623407,-0.299717 -3.761936,-0.0067 -4.367032,0.598423 -0.955733,0.955736 -0.649582,5.684643 0.431359,6.662881 1.144299,1.035577 3.192577,1.117889 4.825665,0.193925 z M 31.044234,47.648347 c 2.131881,-2.010622 2.064104,-5.907478 -0.118472,-6.811529 -1.977044,-0.818918 -5.222539,-0.10983 -5.741204,1.254362 -0.414298,1.089686 -0.3177,2.618703 0.243492,3.854163 1.206818,2.656803 3.778134,3.436507 5.616184,1.703004 z"
       id="path226"
       inkscape:export-xdpi="909.5694"
       inkscape:export-ydpi="909.5694" />
  </g>
</svg>
